<?xml version="1.0" standalone="no"?>
<!DOCTYPE svg PUBLIC "-//W3C//DTD SVG 20010904//EN"
 "http://www.w3.org/TR/2001/REC-SVG-20010904/DTD/svg10.dtd">
<svg version="1.0" xmlns="http://www.w3.org/2000/svg"
 width="210.000000pt" height="210.000000pt" viewBox="0 0 210.000000 210.000000"
 preserveAspectRatio="xMidYMid meet">
<metadata>
Created by potrace 1.14, written by Peter Selinger 2001-2017
</metadata>
<g transform="translate(0.000000,210.000000) scale(0.100000,-0.100000)"
fill="#000000" stroke="none">
<path d="M929 1839 c-75 -11 -187 -51 -264 -94 -141 -79 -247 -190 -320 -340
-66 -132 -80 -195 -80 -355 0 -160 14 -223 80 -355 83 -167 195 -279 360 -360
113 -55 184 -74 310 -82 349 -21 674 194 795 526 208 569 -275 1149 -881 1060z
m321 -25 c92 -23 234 -94 307 -154 125 -102 228 -265 269 -425 24 -95 24 -275
0 -370 -25 -97 -95 -238 -156 -312 -101 -124 -271 -232 -425 -270 -101 -24
-286 -22 -386 5 -327 88 -566 377 -586 710 -7 121 8 218 50 331 99 264 338
456 622 502 70 11 228 3 305 -17z"/>
<path d="M922 1620 c-189 -51 -346 -193 -414 -375 -18 -51 -22 -81 -22 -195 0
-153 13 -200 86 -317 101 -160 304 -273 493 -273 249 0 489 178 566 420 29 90
29 249 0 340 -56 178 -195 320 -379 387 -95 35 -231 40 -330 13z m290 -36
c166 -40 307 -168 375 -340 25 -62 27 -82 27 -194 0 -112 -2 -132 -27 -194
-51 -129 -152 -242 -268 -301 -168 -86 -404 -73 -557 30 -319 216 -336 677
-32 906 139 105 304 137 482 93z"/>
<path d="M936 1569 c-86 -21 -170 -71 -241 -143 -140 -141 -192 -314 -150
-495 23 -95 70 -177 150 -257 106 -107 218 -154 370 -154 226 0 418 133 503
348 23 59 26 81 26 182 0 101 -3 123 -26 182 -59 148 -174 263 -320 320 -61
24 -245 34 -312 17z m131 -206 c-2 -16 -4 -5 -4 22 0 28 2 40 4 28 2 -13 2
-35 0 -50z m-136 -170 c12 -27 26 -59 31 -73 10 -24 11 -23 38 35 36 76 39 66
4 -13 l-25 -59 36 -89 c21 -49 41 -93 45 -98 8 -8 60 93 60 115 0 5 -12 10
-27 10 l-28 2 28 4 c15 2 27 8 27 13 0 18 -73 180 -81 180 -5 0 -9 5 -9 10 0
6 15 10 33 10 32 0 35 -4 59 -62 14 -34 30 -64 35 -65 5 -2 21 25 35 59 24 59
28 63 58 63 31 0 32 -1 110 -183 l79 -183 -31 3 c-30 3 -34 8 -101 168 -38 91
-72 169 -76 173 -4 4 -21 -23 -38 -61 l-31 -69 44 -102 c24 -57 44 -105 44
-107 0 -2 -13 -4 -28 -4 -26 0 -31 6 -53 61 -13 34 -28 61 -34 61 -5 0 -21
-28 -35 -61 -24 -60 -26 -62 -59 -59 -31 3 -35 8 -58 66 -14 34 -29 62 -33 62
-4 0 -18 -26 -30 -57 -13 -32 -27 -62 -32 -68 -5 -5 0 15 13 45 12 30 26 67
32 81 9 22 4 42 -29 123 -21 53 -42 96 -45 96 -4 0 -12 -14 -19 -30 -7 -17
-15 -29 -17 -27 -2 3 4 21 13 41 14 29 23 36 46 36 25 0 32 -7 49 -47z m-120
-70 c-12 -20 -14 -14 -5 12 4 9 9 14 11 11 3 -2 0 -13 -6 -23z m-30 -70 c-12
-20 -14 -14 -5 12 4 9 9 14 11 11 3 -2 0 -13 -6 -23z m-25 -60 c-8 -15 -15
-25 -16 -21 0 12 23 58 27 54 3 -2 -2 -17 -11 -33z m-30 -70 c-8 -15 -15 -25
-16 -21 0 12 23 58 27 54 3 -2 -2 -17 -11 -33z m182 -190 c15 -50 9 -52 -11
-3 -8 22 -12 40 -8 40 4 0 13 -17 19 -37z m49 -30 c-2 -16 -4 -5 -4 22 0 28 2
40 4 28 2 -13 2 -35 0 -50z m30 0 c-2 -16 -4 -5 -4 22 0 28 2 40 4 28 2 -13 2
-35 0 -50z m241 -3 l-1 -25 -4 24 c-3 14 -12 36 -20 50 l-15 26 21 -25 c11
-14 20 -36 19 -50z m-191 38 c-3 -8 -6 -5 -6 6 -1 11 2 17 5 13 3 -3 4 -12 1
-19z m140 -25 c-3 -10 -5 -4 -5 12 0 17 2 24 5 18 2 -7 2 -21 0 -30z m-65 2
c3 -13 1 -22 -3 -19 -9 5 -13 44 -5 44 2 0 6 -11 8 -25z"/>
</g>
</svg>
